{"glyphs":{"0":{"ha":1199,"x_min":0,"x_max":0,"o":"m 0 1 l 0 0 l 0 694 l 1171 694 l 1171 0 z m 215 476 l 215 215 l 956 215 l 956 476 z "},"1":{"ha":1197,"x_min":0,"x_max":0,"o":"m 0 0 l 1169 0 l 1169 211 l 692 211 l 692 694 l 1 694 l 1 481 l 478 481 l 478 211 l 0 211 z "},"2":{"ha":1199,"x_min":0,"x_max":0,"o":"m 1171 694 l 0 694 l 0 478 l 958 478 l 958 451 l 0 451 l 0 0 l 1171 0 l 1171 215 l 215 215 l 215 242 l 1171 242 z "},"3":{"ha":1199,"x_min":0,"x_max":0,"o":"m 1171 0 l 1171 694 l 0 694 l 0 240 l 957 240 l 957 217 l 0 217 l 0 0 z m 957 450 l 0 450 l 0 476 l 957 476 z "},"4":{"ha":1197,"x_min":0,"x_max":0,"o":"m 1169 694 l 957 694 l 957 457 l 215 457 l 215 694 l 0 694 l 0 240 l 957 240 l 957 0 l 1169 0 z "},"5":{"ha":1199,"x_min":0,"x_max":0,"o":"m 0 694 l 0 244 l 956 244 l 956 218 l 0 218 l 0 0 l 1171 0 l 1171 451 l 213 451 l 213 476 l 1171 476 l 1171 694 z "},"6":{"ha":1199,"x_min":0,"x_max":0,"o":"m 0 0 l 1171 0 l 1171 450 l 215 450 l 215 476 l 1171 476 l 1171 694 l 0 694 z m 215 218 l 215 243 l 958 243 l 958 218 z "},"7":{"ha":1197,"x_min":0,"x_max":0,"o":"m 0 481 l 944 481 l 944 0 l 1169 0 l 1169 694 l 0 694 z "},"8":{"ha":1199,"x_min":0,"x_max":0,"o":"m 0 0 l 1171 0 l 1171 694 l 0 694 z m 213 454 l 213 479 l 958 479 l 958 454 z m 215 218 l 215 244 l 956 244 l 956 218 z "},"9":{"ha":1199,"x_min":0,"x_max":0,"o":"m 0 694 l 0 244 l 956 244 l 956 218 l 0 218 l 0 0 l 1171 0 l 1171 479 l 956 479 l 956 454 l 213 454 l 213 479 l 1171 479 l 1171 694 z "},"A":{"ha":1199,"x_min":0,"x_max":0,"o":"m 0 694 l 0 476 l 957 476 l 957 453 l 0 453 l 0 0 l 1171 0 l 1171 694 z m 214 240 l 957 240 l 957 217 l 214 217 z "},"B":{"ha":1200,"x_min":0,"x_max":0,"o":"m 1 1 l 1 0 l 1 931 l 218 931 l 218 694 l 1172 694 l 1172 0 z m 217 476 l 217 215 l 957 215 l 957 476 z "},"C":{"ha":1200,"x_min":0,"x_max":0,"o":"m 1 1 l 1 0 l 0 694 l 1172 694 l 1172 476 l 215 476 l 215 214 l 1172 214 l 1172 0 z "},"Ç":{"ha":1200,"x_min":0,"x_max":0,"o":"m 690 -131 l 689 -21 l 538 -21 l 538 -231 l 538 -296 l 538 -322 l 610 -322 z m 1 1 l 1 0 l 0 696 l 1172 696 l 1172 476 l 215 476 l 215 214 l 1172 214 l 1172 0 z "},"D":{"ha":1201,"x_min":0,"x_max":0,"o":"m 1 0 l 1 1 l 1174 0 l 1174 931 l 956 931 l 956 694 l 0 694 z m 215 214 l 215 476 l 956 476 l 956 214 z "},"E":{"ha":1199,"x_min":0,"x_max":0,"o":"m 0 0 l 1171 0 l 1171 217 l 214 217 l 214 240 l 1171 240 l 1171 694 l 0 694 z m 214 456 l 214 476 l 957 476 l 957 456 z "},"É":{"ha":833,"x_min":0,"x_max":0,"o":"m 0 0 l 1171 0 l 1171 217 l 214 217 l 214 240 l 1171 240 l 1171 694 l 0 694 z m 214 456 l 214 476 l 957 476 l 957 456 z m 722 872 l 421 719 l 447 719 l 513 719 l 722 719 l 722 871 z "},"F":{"ha":1197,"x_min":0,"x_max":0,"o":"m 0 481 l 478 481 l 478 0 l 692 0 l 692 481 l 1168 481 l 1168 694 l 692 694 l 692 719 l 1169 719 l 1169 931 l 478 931 l 478 694 l 0 694 z "},"G":{"ha":1197,"x_min":0,"x_max":0,"o":"m 0 -26 l 0 -244 l 1169 -244 l 1169 694 l 0 694 l 0 -1 l 956 0 l 956 -26 z m 215 213 l 215 476 l 956 476 l 956 213 z "},"H":{"ha":1197,"x_min":0,"x_max":0,"o":"m 0 0 l 213 0 l 213 478 l 954 478 l 954 0 l 1169 0 l 1169 694 l 213 694 l 213 935 l 0 935 z "},"I":{"ha":242,"x_min":0,"x_max":0,"o":"m 0 694 l 0 0 l 214 0 l 214 694 z m 0 929 l 0 717 l 214 717 l 214 929 z "},"J":{"ha":242,"x_min":0,"x_max":0,"o":"m -483 -244 l 214 -244 l 214 694 l 0 694 l 0 -33 l -483 -33 z m 0 717 l 214 717 l 214 929 l 0 929 z "},"K":{"ha":1197,"x_min":0,"x_max":0,"o":"m 0 0 l 213 0 l 213 240 l 213 240 l 213 929 l 0 929 z m 213 240 l 213 453 l 563 453 l 954 694 l 1168 694 l 1168 581 l 789 347 l 1169 111 l 1169 0 l 960 0 l 563 240 z "},"L":{"ha":242,"x_min":0,"x_max":0,"o":"m 0 931 l 0 0 l 214 0 l 214 931 z "},"M":{"ha":1197,"x_min":0,"x_max":0,"o":"m 0 0 l 213 0 l 213 478 l 478 478 l 478 0 l 690 0 l 690 478 l 954 478 l 954 0 l 1169 0 l 1169 694 l 0 694 z "},"N":{"ha":1197,"x_min":0,"x_max":0,"o":"m 0 0 l 213 0 l 213 475 l 954 475 l 954 0 l 1169 0 l 1169 694 l 213 694 l 213 694 l 0 694 z "},"Ñ":{"ha":1197,"x_min":0,"x_max":0,"o":"m 0 0 l 213 0 l 213 475 l 954 475 l 954 0 l 1169 0 l 1169 694 l 213 694 l 213 694 l 0 694 z m 757 718 l 907 840 l 907 871 l 881 871 l 815 871 l 606 871 l 606 719 z m 490 871 l 340 750 l 340 719 l 367 719 l 432 719 l 642 719 l 642 871 z "},"O":{"ha":1199,"x_min":0,"x_max":0,"o":"m 0 1 l 0 0 l 0 694 l 1171 694 l 1171 0 z m 215 476 l 215 215 l 956 215 l 956 476 z "},"Ö":{"ha":1199,"x_min":0,"x_max":0,"o":"m 0 1 l 0 0 l 0 694 l 1171 694 l 1171 0 z m 215 476 l 215 215 l 956 215 l 956 476 z m 400 876 l 221 875 l 221 724 l 431 724 l 496 724 l 522 724 l 522 768 z m 779 876 l 657 768 l 657 724 l 683 724 l 749 724 l 958 724 l 958 875 z "},"P":{"ha":1199,"x_min":0,"x_max":0,"o":"m 0 694 l 1171 694 l 1171 0 l 217 0 l 217 -235 l 0 -235 l 0 696 z m 215 215 l 956 215 l 956 476 l 215 476 z "},"Q":{"ha":1199,"x_min":0,"x_max":0,"o":"m 1171 694 l 1171 696 l 1171 -235 l 954 -235 l 954 0 l 0 0 l 0 696 z m 956 215 l 956 476 l 215 476 l 215 215 z "},"R":{"ha":1194,"x_min":0,"x_max":0,"o":"m 1167 694 l 1167 478 l 607 479 l 217 279 l 217 0 l 0 0 l 0 694 l 217 694 l 217 515 l 557 694 z "},"S":{"ha":1199,"x_min":0,"x_max":0,"o":"m 0 694 l 0 244 l 956 244 l 956 218 l 0 218 l 0 0 l 1171 0 l 1171 454 l 213 454 l 213 479 l 1171 479 l 1171 694 z "},"T":{"ha":1201,"x_min":0,"x_max":0,"o":"m 0 0 l 1174 0 l 1174 218 l 217 218 l 217 476 l 1174 476 l 1174 694 l 217 694 l 217 932 l 0 932 z "},"U":{"ha":1197,"x_min":0,"x_max":0,"o":"m 1169 694 l 957 694 l 957 217 l 215 217 l 215 694 l 0 694 l 0 0 l 957 0 l 957 0 l 1169 0 z "},"V":{"ha":1197,"x_min":0,"x_max":0,"o":"m 1169 694 l 957 694 l 957 419 l 561 217 l 215 217 l 215 694 l 0 694 l 0 0 l 540 0 l 597 0 l 1169 285 z "},"W":{"ha":1197,"x_min":0,"x_max":0,"o":"m 0 694 l 0 0 l 213 0 l 213 0 l 1169 0 l 1169 694 l 954 694 l 954 217 l 213 217 l 213 694 z m 478 217 l 690 217 l 690 694 l 478 694 z "},"X":{"ha":1199,"x_min":0,"x_max":0,"o":"m 1033 694 l 0 178 l 0 0 l 121 0 l 1171 521 l 1171 694 z m 1033 696 l 0 178 l 0 0 l 121 0 l 1171 521 l 1171 696 z m 1033 696 l 0 178 l 0 0 l 121 0 l 1171 521 l 1171 696 z m 138 694 l 0 694 l 0 521 l 1050 0 l 1171 0 l 1171 178 z m 138 696 l 0 696 l 0 521 l 1050 0 l 1171 0 l 1171 178 z m 138 696 l 0 696 l 0 521 l 1050 0 l 1171 0 l 1171 178 z "},"Y":{"ha":1197,"x_min":0,"x_max":0,"o":"m 0 694 l 0 243 l 953 243 l 953 214 l 0 214 l 0 0 l 1169 0 l 1169 694 l 951 694 l 951 456 l 211 456 l 211 694 z "},"Z":{"ha":1199,"x_min":0,"x_max":0,"o":"m 0 693 l 0 478 l 607 478 l 0 174 l 0 0 l 1171 0 l 1171 214 l 572 214 l 1169 521 l 1169 694 z "},"a":{"ha":1199,"x_min":0,"x_max":0,"o":"m 0 694 l 0 476 l 957 476 l 957 453 l 0 453 l 0 0 l 1171 0 l 1171 694 z m 214 240 l 957 240 l 957 217 l 214 217 z "},"b":{"ha":1200,"x_min":0,"x_max":0,"o":"m 1 1 l 1 0 l 1 931 l 218 931 l 218 694 l 1172 694 l 1172 0 z m 217 476 l 217 215 l 957 215 l 957 476 z "},"c":{"ha":1200,"x_min":0,"x_max":0,"o":"m 1 1 l 1 0 l 0 694 l 1172 694 l 1172 476 l 215 476 l 215 214 l 1172 214 l 1172 0 z "},"ç":{"ha":1200,"x_min":0,"x_max":0,"o":"m 690 -131 l 689 -21 l 538 -21 l 538 -231 l 538 -296 l 538 -322 l 610 -322 z m 1 1 l 1 0 l 0 696 l 1172 696 l 1172 476 l 215 476 l 215 214 l 1172 214 l 1172 0 z "},"d":{"ha":1201,"x_min":0,"x_max":0,"o":"m 1 0 l 1 1 l 1174 0 l 1174 931 l 956 931 l 956 694 l 0 694 z m 215 214 l 215 476 l 956 476 l 956 214 z "},"e":{"ha":1199,"x_min":0,"x_max":0,"o":"m 0 0 l 1171 0 l 1171 217 l 214 217 l 214 240 l 1171 240 l 1171 694 l 0 694 z m 214 456 l 214 476 l 957 476 l 957 456 z "},"é":{"ha":833,"x_min":0,"x_max":0,"o":"m 0 0 l 1171 0 l 1171 217 l 214 217 l 214 240 l 1171 240 l 1171 694 l 0 694 z m 214 456 l 214 476 l 957 476 l 957 456 z m 722 872 l 421 719 l 447 719 l 513 719 l 722 719 l 722 871 z "},"è":{"ha":1199,"x_min":0,"x_max":0,"o":"m 0 0 l 1171 0 l 1171 217 l 214 217 l 214 240 l 1171 240 l 1171 694 l 0 694 z m 214 456 l 214 476 l 957 476 l 957 456 z m 422 872 l 422 871 l 422 719 l 632 719 l 697 719 l 724 719 z "},"f":{"ha":1197,"x_min":0,"x_max":0,"o":"m 0 481 l 478 481 l 478 0 l 692 0 l 692 481 l 1168 481 l 1168 694 l 692 694 l 692 719 l 1169 719 l 1169 931 l 478 931 l 478 694 l 0 694 z "},"g":{"ha":1197,"x_min":0,"x_max":0,"o":"m 0 -26 l 0 -244 l 1169 -244 l 1169 694 l 0 694 l 0 -1 l 956 0 l 956 -26 z m 215 213 l 215 476 l 956 476 l 956 213 z "},"h":{"ha":1197,"x_min":0,"x_max":0,"o":"m 0 0 l 213 0 l 213 478 l 954 478 l 954 0 l 1169 0 l 1169 694 l 213 694 l 213 935 l 0 935 z "},"i":{"ha":242,"x_min":0,"x_max":0,"o":"m 0 694 l 0 0 l 214 0 l 214 694 z m 0 929 l 0 717 l 214 717 l 214 929 z "},"î":{"ha":242,"x_min":0,"x_max":0,"o":"m 0 694 l 0 0 l 214 0 l 214 694 z m 110 874 l 110 722 l 167 722 l 232 722 l 258 722 l 258 753 z m 108 874 l -42 753 l -42 722 l -15 722 l 50 722 l 110 722 l 110 874 z "},"j":{"ha":242,"x_min":0,"x_max":0,"o":"m -483 -244 l 214 -244 l 214 694 l 0 694 l 0 -33 l -483 -33 z m 0 717 l 214 717 l 214 929 l 0 929 z "},"k":{"ha":1197,"x_min":0,"x_max":0,"o":"m 0 0 l 213 0 l 213 240 l 213 240 l 213 929 l 0 929 z m 213 240 l 213 453 l 563 453 l 954 694 l 1168 694 l 1168 581 l 789 347 l 1169 111 l 1169 0 l 960 0 l 563 240 z "},"l":{"ha":242,"x_min":0,"x_max":0,"o":"m 0 931 l 0 0 l 214 0 l 214 931 z "},"m":{"ha":1197,"x_min":0,"x_max":0,"o":"m 0 0 l 213 0 l 213 478 l 478 478 l 478 0 l 690 0 l 690 478 l 954 478 l 954 0 l 1169 0 l 1169 694 l 0 694 z "},"n":{"ha":1197,"x_min":0,"x_max":0,"o":"m 0 0 l 213 0 l 213 475 l 954 475 l 954 0 l 1169 0 l 1169 694 l 213 694 l 213 694 l 0 694 z "},"ñ":{"ha":1197,"x_min":0,"x_max":0,"o":"m 0 0 l 213 0 l 213 475 l 954 475 l 954 0 l 1169 0 l 1169 694 l 213 694 l 213 694 l 0 694 z m 757 718 l 907 840 l 907 871 l 881 871 l 815 871 l 606 871 l 606 719 z m 490 871 l 340 750 l 340 719 l 367 719 l 432 719 l 642 719 l 642 871 z "},"o":{"ha":1199,"x_min":0,"x_max":0,"o":"m 0 1 l 0 0 l 0 694 l 1171 694 l 1171 0 z m 215 476 l 215 215 l 956 215 l 956 476 z "},"ö":{"ha":1199,"x_min":0,"x_max":0,"o":"m 0 1 l 0 0 l 0 694 l 1171 694 l 1171 0 z m 215 476 l 215 215 l 956 215 l 956 476 z m 400 876 l 221 875 l 221 724 l 431 724 l 496 724 l 522 724 l 522 768 z m 779 876 l 657 768 l 657 724 l 683 724 l 749 724 l 958 724 l 958 875 z "},"ø":{"ha":1199,"x_min":0,"x_max":0,"o":"m 0 1 l 0 0 l 0 694 l 217 694 l 217 694 l 1171 694 l 1171 0 z m 215 476 l 215 215 l 956 215 l 956 476 z m 0 696 l 1169 697 l 1169 521 l 567 217 l 1171 217 l 1171 3 l 0 3 l 0 174 l 607 481 l 0 481 z "},"p":{"ha":1199,"x_min":0,"x_max":0,"o":"m 0 694 l 1171 694 l 1171 0 l 217 0 l 217 -235 l 0 -235 l 0 696 z m 215 215 l 956 215 l 956 476 l 215 476 z "},"q":{"ha":1199,"x_min":0,"x_max":0,"o":"m 1171 694 l 1171 696 l 1171 -235 l 954 -235 l 954 0 l 0 0 l 0 696 z m 956 215 l 956 476 l 215 476 l 215 215 z "},"r":{"ha":1194,"x_min":0,"x_max":0,"o":"m 1167 694 l 1167 478 l 607 479 l 217 279 l 217 0 l 0 0 l 0 694 l 217 694 l 217 515 l 557 694 z "},"s":{"ha":1199,"x_min":0,"x_max":0,"o":"m 0 694 l 0 244 l 956 244 l 956 218 l 0 218 l 0 0 l 1171 0 l 1171 454 l 213 454 l 213 479 l 1171 479 l 1171 694 z "},"t":{"ha":1201,"x_min":0,"x_max":0,"o":"m 0 0 l 1174 0 l 1174 218 l 217 218 l 217 476 l 1174 476 l 1174 694 l 217 694 l 217 932 l 0 932 z "},"u":{"ha":1197,"x_min":0,"x_max":0,"o":"m 1169 694 l 957 694 l 957 217 l 215 217 l 215 694 l 0 694 l 0 0 l 957 0 l 957 0 l 1169 0 z "},"v":{"ha":1197,"x_min":0,"x_max":0,"o":"m 1169 694 l 957 694 l 957 419 l 561 217 l 215 217 l 215 694 l 0 694 l 0 0 l 540 0 l 597 0 l 1169 285 z "},"w":{"ha":1197,"x_min":0,"x_max":0,"o":"m 0 694 l 0 0 l 213 0 l 213 0 l 1169 0 l 1169 694 l 954 694 l 954 217 l 213 217 l 213 694 z m 478 217 l 690 217 l 690 694 l 478 694 z "},"x":{"ha":1199,"x_min":0,"x_max":0,"o":"m 1033 694 l 0 178 l 0 0 l 121 0 l 1171 521 l 1171 694 z m 1033 696 l 0 178 l 0 0 l 121 0 l 1171 521 l 1171 696 z m 1033 696 l 0 178 l 0 0 l 121 0 l 1171 521 l 1171 696 z m 138 694 l 0 694 l 0 521 l 1050 0 l 1171 0 l 1171 178 z m 138 696 l 0 696 l 0 521 l 1050 0 l 1171 0 l 1171 178 z m 138 696 l 0 696 l 0 521 l 1050 0 l 1171 0 l 1171 178 z "},"y":{"ha":1197,"x_min":0,"x_max":0,"o":"m 0 694 l 0 243 l 953 243 l 953 214 l 0 214 l 0 0 l 1169 0 l 1169 694 l 951 694 l 951 456 l 211 456 l 211 694 z "},"z":{"ha":1199,"x_min":0,"x_max":0,"o":"m 0 693 l 0 478 l 607 478 l 0 174 l 0 0 l 1171 0 l 1171 214 l 572 214 l 1169 521 l 1169 694 z "},":":{"ha":242,"x_min":0,"x_max":0,"o":"m 0 218 l 0 0 l 214 0 l 214 218 z m 0 694 l 0 481 l 214 481 l 214 694 z "},",":{"ha":242,"x_min":0,"x_max":0,"o":"m 0 0 l 106 0 l 106 -87 l 135 -87 l 214 0 l 214 218 l 0 218 z "},"!":{"ha":506,"x_min":0,"x_max":0,"o":"m 125 931 l 125 238 l 339 238 l 339 931 z m 125 213 l 125 0 l 339 0 l 339 213 z "},".":{"ha":242,"x_min":0,"x_max":0,"o":"m 0 218 l 0 0 l 214 0 l 214 218 z "},"'":{"ha":242,"x_min":0,"x_max":0,"o":"m 214 719 l 214 931 l 106 931 l 106 725 l 106 660 l 106 633 l 135 633 z m 0 931 l 0 719 l 214 719 l 214 931 z "},";":{"ha":242,"x_min":0,"x_max":0,"o":"m 0 694 l 0 478 l 214 478 l 214 694 z m 214 0 l 214 218 l 106 218 l 106 4 l 106 -61 l 106 -87 l 135 -87 z m 0 218 l 0 0 l 214 0 l 214 218 z "},"—":{"ha":949,"x_min":0,"x_max":0,"o":"m 69 475 l 69 263 l 879 263 l 879 475 z "},"–":{"ha":833,"x_min":0,"x_max":0,"o":"m 229 475 l 229 263 l 596 263 l 596 475 z "},"-":{"ha":631,"x_min":0,"x_max":0,"o":"m 208 475 l 208 263 l 422 263 l 422 475 z "}," ":{"ha":417,"x_min":0,"x_max":0,"o":""},"~":{"ha":833,"x_min":0,"x_max":0,"o":"m 513 319 l 663 442 l 663 472 l 636 472 l 571 472 l 361 472 l 361 321 z m 296 472 l 146 351 l 146 321 l 172 321 l 238 321 l 447 321 l 447 472 z "},"´":{"ha":357,"x_min":0,"x_max":0,"o":"m 329 872 l 28 719 l 54 719 l 119 719 l 329 719 l 329 871 z "},"ˆ":{"ha":328,"x_min":0,"x_max":0,"o":"m 151 874 l 151 722 l 208 722 l 274 722 l 300 722 l 300 753 z m 150 874 l 0 753 l 0 722 l 26 722 l 92 722 l 151 722 l 151 874 z "},"¨":{"ha":765,"x_min":0,"x_max":0,"o":"m 179 872 l 0 871 l 0 719 l 210 719 l 275 719 l 301 719 l 301 764 z m 558 872 l 436 764 l 436 719 l 463 719 l 528 719 l 738 719 l 738 871 z "},"˙":{"ha":329,"x_min":0,"x_max":0,"o":"m 0 872 l 0 871 l 0 719 l 210 719 l 275 719 l 301 719 l 301 872 z "},"`":{"ha":833,"x_min":0,"x_max":0,"o":"m 217 872 l 217 871 l 217 719 l 426 719 l 492 719 l 518 719 z "},"˜":{"ha":594,"x_min":0,"x_max":0,"o":"m 417 718 l 567 840 l 567 871 l 540 871 l 475 871 l 265 871 l 265 719 z m 150 871 l 0 750 l 0 719 l 26 719 l 92 719 l 301 719 l 301 871 z "}}}
